<svg width="1366" height="2136" viewBox="0 0 1366 2136" fill="none" xmlns="http://www.w3.org/2000/svg">
<circle cx="1288" cy="1624" r="2" fill="#ABB2BF"/>
<circle cx="1312.75" cy="1624" r="2" fill="#ABB2BF"/>
<circle cx="1337.5" cy="1624" r="2" fill="#ABB2BF"/>
<circle cx="1362.25" cy="1624" r="2" fill="#ABB2BF"/>
<circle cx="1288" cy="1648.75" r="2" fill="#ABB2BF"/>
<circle cx="1312.75" cy="1648.75" r="2" fill="#ABB2BF"/>
<circle cx="1337.5" cy="1648.75" r="2" fill="#ABB2BF"/>
<circle cx="1362.25" cy="1648.75" r="2" fill="#ABB2BF"/>
<circle cx="1288" cy="1673.5" r="2" fill="#ABB2BF"/>
<circle cx="1312.75" cy="1673.5" r="2" fill="#ABB2BF"/>
<circle cx="1337.5" cy="1673.5" r="2" fill="#ABB2BF"/>
<circle cx="1362.25" cy="1673.5" r="2" fill="#ABB2BF"/>
<circle cx="1288" cy="1698.25" r="2" fill="#ABB2BF"/>
<circle cx="1312.75" cy="1698.25" r="2" fill="#ABB2BF"/>
<circle cx="1337.5" cy="1698.25" r="2" fill="#ABB2BF"/>
<circle cx="1362.25" cy="1698.25" r="2" fill="#ABB2BF"/>
<circle cx="1288" cy="1723" r="2" fill="#ABB2BF"/>
<circle cx="1312.75" cy="1723" r="2" fill="#ABB2BF"/>
<circle cx="1337.5" cy="1723" r="2" fill="#ABB2BF"/>
<circle cx="1362.25" cy="1723" r="2" fill="#ABB2BF"/>
<circle cx="0.5" cy="2035" r="2" fill="#ABB2BF"/>
<circle cx="25.25" cy="2035" r="2" fill="#ABB2BF"/>
<circle cx="50" cy="2035" r="2" fill="#ABB2BF"/>
<circle cx="0.5" cy="2059.75" r="2" fill="#ABB2BF"/>
<circle cx="25.25" cy="2059.75" r="2" fill="#ABB2BF"/>
<circle cx="50" cy="2059.75" r="2" fill="#ABB2BF"/>
<circle cx="0.5" cy="2084.5" r="2" fill="#ABB2BF"/>
<circle cx="25.25" cy="2084.5" r="2" fill="#ABB2BF"/>
<circle cx="50" cy="2084.5" r="2" fill="#ABB2BF"/>
<circle cx="0.5" cy="2109.25" r="2" fill="#ABB2BF"/>
<circle cx="25.25" cy="2109.25" r="2" fill="#ABB2BF"/>
<circle cx="50" cy="2109.25" r="2" fill="#ABB2BF"/>
<circle cx="0.5" cy="2134" r="2" fill="#ABB2BF"/>
<circle cx="25.25" cy="2134" r="2" fill="#ABB2BF"/>
<circle cx="50" cy="2134" r="2" fill="#ABB2BF"/>
<rect x="-76.5" y="1453.5" width="154" height="154" stroke="#ABB2BF"/>
<rect x="1298.5" y="488.5" width="154" height="154" stroke="#ABB2BF"/>
<rect x="1284.5" y="0.5" width="90" height="90" stroke="#ABB2BF"/>
</svg>
