<svg width="256" height="256" viewBox="0 0 256 256" fill="none" xmlns="http://www.w3.org/2000/svg">
<circle cx="128" cy="128" r="128" fill="black"/>
<path d="M186.418 211.213C186.418 211.934 186.237 212.611 185.877 213.242C185.606 213.783 185.02 214.234 184.118 214.594C183.217 214.955 181.999 215.225 180.467 215.406C178.934 215.676 176.95 215.812 174.515 215.812C171.36 215.812 168.79 215.676 166.806 215.406C164.822 215.135 163.334 214.639 162.343 213.918C161.351 213.197 160.539 212.385 159.908 211.483L95.5272 123.974V211.483C95.5272 212.115 95.3468 212.746 94.9861 213.377C94.6255 213.918 93.9943 214.369 93.0926 214.729C92.1909 215 90.9736 215.225 89.4407 215.406C87.998 215.676 86.1496 215.812 83.8953 215.812C81.7313 215.812 79.8828 215.676 78.3499 215.406C76.817 215.225 75.5998 215 74.6981 214.729C73.7964 214.369 73.1652 213.918 72.8045 213.377C72.4438 212.746 72.2635 212.115 72.2635 211.483V43.498C72.2635 42.7767 72.4438 42.1455 72.8045 41.6045C73.1652 41.0635 73.7964 40.6577 74.6981 40.3872C75.5998 40.0265 76.817 39.756 78.3499 39.5757C79.8828 39.3052 81.7313 39.1699 83.8953 39.1699C86.1496 39.1699 87.998 39.3052 89.4407 39.5757C90.9736 39.756 92.1909 40.0265 93.0926 40.3872C93.9943 40.6577 94.6255 41.0635 94.9861 41.6045C95.3468 42.1455 95.5272 42.7767 95.5272 43.498V121.269L157.473 43.498C158.014 42.6865 158.646 42.0103 159.367 41.4692C160.088 40.9282 160.945 40.5225 161.937 40.252C163.019 39.8913 164.281 39.6208 165.724 39.4404C167.257 39.2601 169.195 39.1699 171.54 39.1699C173.884 39.1699 175.778 39.3052 177.221 39.5757C178.663 39.756 179.79 40.0265 180.602 40.3872C181.504 40.7479 182.09 41.1987 182.36 41.7397C182.721 42.2808 182.901 42.8669 182.901 43.498C182.901 44.6702 182.586 45.8424 181.954 47.0146C181.413 48.1868 180.331 49.8099 178.708 51.8838L120.684 121.269L183.172 204.315C184.705 206.659 185.606 208.282 185.877 209.184C186.237 209.996 186.418 210.672 186.418 211.213Z" fill="#D0D0D0"/>
<path d="M163.019 204.856C163.019 206.659 162.929 208.192 162.748 209.455C162.568 210.627 162.252 211.664 161.802 212.565C161.441 213.377 160.945 214.008 160.314 214.459C159.773 214.82 159.096 215 158.285 215H80.9197C78.8458 215 76.8621 214.324 74.9686 212.971C73.1652 211.528 72.2635 209.049 72.2635 205.532V43.498C72.2635 42.7767 72.4438 42.1455 72.8045 41.6045C73.1652 41.0635 73.7964 40.6577 74.6981 40.3872C75.5998 40.0265 76.817 39.756 78.3499 39.5757C79.8828 39.3052 81.7313 39.1699 83.8953 39.1699C86.1496 39.1699 87.998 39.3052 89.4407 39.5757C90.9736 39.756 92.1909 40.0265 93.0926 40.3872C93.9943 40.6577 94.6255 41.0635 94.9861 41.6045C95.3468 42.1455 95.5272 42.7767 95.5272 43.498V194.847H158.285C159.096 194.847 159.773 195.073 160.314 195.523C160.945 195.884 161.441 196.47 161.802 197.282C162.252 198.003 162.568 198.995 162.748 200.257C162.929 201.52 163.019 203.053 163.019 204.856Z" fill="white"/>
</svg>